<svg width="30" height="27" viewBox="0 0 30 27" fill="none" xmlns="http://www.w3.org/2000/svg">
<path d="M29.2676 8.2323L21.7677 0.733969C20.2045 -0.829259 17.5 0.26548 17.5 2.50168V5.48074C15.289 5.57865 13.1234 5.82188 11.2104 6.41771C9.37864 6.98803 7.92551 7.85417 6.89218 8.99167C5.63645 10.375 5 12.1146 5 14.1635C5 17.3769 6.72801 20.0206 9.4203 21.7031C11.3758 22.9275 13.8603 21.0442 13.1193 18.8C12.3112 16.3459 12.2257 15.1061 17.5 14.6979V17.5C17.5 19.7392 20.2066 20.8288 21.7677 19.2677L29.2676 11.7677C30.2441 10.7917 30.2441 9.20834 29.2676 8.2323ZM20 17.5V12.0917C13.2973 12.1918 8.67145 13.2995 10.7453 19.5833C9.2078 18.6224 7.49999 16.8792 7.49999 14.1635C7.49999 8.46907 14.226 7.96839 20 7.92136V2.50001L27.5 10L20 17.5ZM21.2885 21.9007C21.6734 21.7907 22.0411 21.6276 22.3809 21.4161C22.7963 21.1582 23.3333 21.4592 23.3333 21.9481V24.1667C23.3333 25.5474 22.214 26.6667 20.8333 26.6667H2.5C1.11927 26.6667 0 25.5474 0 24.1667V5.83334C0 4.45261 1.11927 3.33334 2.5 3.33334H9.37499C9.72015 3.33334 9.99999 3.61319 9.99999 3.95834V4.19199C9.99999 4.44808 9.84442 4.67996 9.60577 4.77282C8.89213 5.05048 8.23098 5.3737 7.624 5.74079C7.52547 5.80092 7.41235 5.83293 7.29692 5.83334H2.8125C2.72962 5.83334 2.65013 5.86626 2.59153 5.92487C2.53292 5.98347 2.5 6.06296 2.5 6.14584V23.8542C2.5 23.937 2.53292 24.0165 2.59153 24.0751C2.65013 24.1337 2.72962 24.1667 2.8125 24.1667H20.5208C20.6037 24.1667 20.6832 24.1337 20.7418 24.0751C20.8004 24.0165 20.8333 23.937 20.8333 23.8542V22.5018C20.8333 22.2221 21.0197 21.9779 21.2885 21.9007Z" fill="white"/>
</svg>
