<svg width="41" height="46" viewBox="0 0 41 46" fill="none" xmlns="http://www.w3.org/2000/svg">
<path d="M20.6326 45.6447C20.0333 45.6447 19.425 45.4837 18.8972 45.1796L13.3776 41.9143C12.5546 41.4491 12.9571 41.2881 13.2255 41.1987C14.3258 40.814 14.5495 40.7335 15.7214 40.0625C15.8466 39.991 16.0076 40.0178 16.1329 40.0983L20.3732 42.6121C20.5253 42.7016 20.74 42.7016 20.8831 42.6121L37.4061 33.0759C37.5581 32.9864 37.6565 32.8075 37.6565 32.6286V13.5561C37.6565 13.3682 37.5581 13.1982 37.3971 13.0998L20.8831 3.57253C20.731 3.48307 20.5253 3.48307 20.3732 3.57253L3.86817 13.1088C3.70714 13.1982 3.60874 13.3771 3.60874 13.565V32.6286C3.60874 32.8075 3.70714 32.9864 3.86817 33.0669L8.39475 35.6791C10.8549 36.9047 12.3578 35.4644 12.3578 34.0062V15.1842C12.3578 14.9158 12.5725 14.7101 12.8408 14.7101H14.9341C15.1936 14.7101 15.4172 14.9158 15.4172 15.1842V34.0152C15.4172 37.2893 13.6281 39.168 10.5239 39.168C9.56666 39.168 8.81521 39.168 6.72188 38.1302L2.39211 35.6344C1.31861 35.0171 0.656616 33.8631 0.656616 32.6196V13.5561C0.656616 12.3215 1.31861 11.1586 2.39211 10.5413L18.8972 1.00507C19.9438 0.41465 21.3304 0.41465 22.3681 1.00507L38.8911 10.5503C39.9646 11.1675 40.6266 12.3215 40.6266 13.565V32.6286C40.6266 33.8631 39.9646 35.0171 38.8911 35.6433L22.3681 45.1796C21.8403 45.4837 21.241 45.6447 20.6326 45.6447ZM33.9709 26.8496C33.9709 23.2802 31.5555 22.3319 26.4832 21.661C21.3483 20.9811 20.8294 20.6322 20.8294 19.4335C20.8294 18.4405 21.2678 17.1165 25.0698 17.1165C28.4602 17.1165 29.7126 17.8501 30.2315 20.1402C30.2762 20.3549 30.473 20.5159 30.6967 20.5159H32.8437C32.9779 20.5159 33.1031 20.4622 33.1926 20.3638C33.282 20.2654 33.3268 20.1312 33.3178 19.9971C32.9868 16.0519 30.3657 14.2181 25.0698 14.2181C20.3553 14.2181 17.5463 16.204 17.5463 19.5408C17.5463 23.1549 20.3464 24.1569 24.864 24.6042C30.2762 25.132 30.6967 25.9281 30.6967 26.9927C30.6967 28.8355 29.2117 29.6228 25.7318 29.6228C21.3572 29.6228 20.4 28.5224 20.078 26.3486C20.0422 26.116 19.8454 25.946 19.6039 25.946H17.4658C17.1974 25.946 16.9917 26.1607 16.9917 26.4202C16.9917 29.2023 18.5035 32.5212 25.7407 32.5212C30.9651 32.5123 33.9709 30.4458 33.9709 26.8496Z" fill="white"/>
</svg>
