<svg width="41" height="41" viewBox="0 0 41 41" fill="none" xmlns="http://www.w3.org/2000/svg">
<path d="M39.6581 15.2013C38.9711 12.4445 37.6685 10.3658 34.8939 10.3658H31.3164V14.5946C31.3164 17.8778 28.5329 20.6435 25.3568 20.6435H15.8285C13.2234 20.6435 11.0644 22.8739 11.0644 25.4879V34.57C11.0644 37.1573 13.3126 38.674 15.8285 39.4145C18.844 40.2977 21.7435 40.4583 25.3568 39.4145C27.7567 38.7186 30.1209 37.3179 30.1209 34.57V30.939H20.6016V29.7256H34.8939C37.6685 29.7256 38.6945 27.7896 39.6581 24.8901C40.6573 21.9014 40.6127 19.0287 39.6581 15.2013ZM25.9545 33.3567C26.9448 33.3567 27.7478 34.1686 27.7478 35.1678C27.7478 36.1759 26.9448 36.9878 25.9545 36.9878C24.9731 36.9878 24.1613 36.167 24.1613 35.1678C24.1702 34.1596 24.9731 33.3567 25.9545 33.3567ZM15.3914 19.448H24.9196C27.5693 19.448 29.6837 17.2622 29.6837 14.6036V5.51247C29.6837 2.92522 27.5069 0.989235 24.9196 0.552078C21.7257 0.025705 18.2552 0.0524699 15.3914 0.561C11.3588 1.27473 10.6272 2.76463 10.6272 5.5214V9.15248H20.1644V10.3658H7.0497C4.27509 10.3658 1.84842 12.0341 1.09008 15.2013C0.215769 18.8324 0.180083 21.0985 1.09008 24.8901C1.76812 27.7094 3.38293 29.7256 6.15754 29.7256H9.43176V25.3719C9.43176 22.2226 12.1528 19.448 15.3914 19.448ZM14.7936 6.72581C13.8033 6.72581 13.0004 5.91394 13.0004 4.91473C13.0093 3.90659 13.8033 3.09473 14.7936 3.09473C15.775 3.09473 16.5869 3.91551 16.5869 4.91473C16.5869 5.91394 15.7839 6.72581 14.7936 6.72581Z" fill="white"/>
</svg>
