<svg width="39" height="39" viewBox="0 0 39 39" fill="none" xmlns="http://www.w3.org/2000/svg">
<path d="M0.928571 0C0.682307 2.46228e-05 0.446135 0.0978639 0.271999 0.271999C0.0978639 0.446135 2.46228e-05 0.682307 0 0.928571V38.0714C2.46228e-05 38.3177 0.0978639 38.5539 0.271999 38.728C0.446135 38.9021 0.682307 39 0.928571 39H38.0714C38.3177 39 38.5539 38.9021 38.728 38.728C38.9021 38.5539 39 38.3177 39 38.0714V0.928571C39 0.682307 38.9021 0.446135 38.728 0.271999C38.5539 0.0978639 38.3177 2.46228e-05 38.0714 0H0.928571ZM1.85714 1.85714H37.1429V37.1429H1.85714V1.85714ZM10.2143 17.6429V20.8421H14.8571V35.2857H18.5714V20.8421H23.2143V17.6429H10.2143ZM30.3563 17.6519C27.4642 17.6404 24.1592 18.5168 24.1592 22.5868C24.1592 27.9075 31.3284 27.9088 31.3284 30.3092C31.3284 30.5367 31.4249 32.1899 28.8945 32.1899C26.3642 32.1899 24.2553 30.5993 24.2553 30.5993V34.4605C24.2553 34.4605 35.2875 38.0288 35.2875 29.9827C35.2866 24.7595 28.0512 25.0207 28.0512 22.4254C28.0512 21.4197 28.7656 20.4794 30.7444 20.4794C32.7232 20.4794 34.475 21.6473 34.475 21.6473L34.6056 18.2069C34.6056 18.2069 32.6058 17.6609 30.3563 17.6519Z" fill="white"/>
</svg>
