<svg width="41" height="36" viewBox="0 0 41 36" fill="none" xmlns="http://www.w3.org/2000/svg">
<path d="M33.5598 12.1389C33.1382 11.9984 32.7167 11.8657 32.2951 11.7408C32.3654 11.452 32.4278 11.1631 32.4903 10.8743C33.4505 6.22151 32.8182 2.48214 30.687 1.24869C28.6338 0.0698882 25.2848 1.29553 21.8967 4.24643C21.561 4.53528 21.2331 4.83974 20.9209 5.1442C20.7101 4.94122 20.4915 4.73825 20.2729 4.54309C16.7209 1.38921 13.1611 0.0620817 11.0299 1.30334C8.98453 2.48994 8.37561 6.01073 9.23434 10.4137C9.32021 10.8508 9.41389 11.2802 9.52319 11.7174C9.02356 11.8579 8.53174 12.014 8.07115 12.178C3.90241 13.6222 0.912476 15.9017 0.912476 18.2593C0.912476 20.695 4.09758 23.1385 8.43026 24.6217C8.78156 24.7388 9.13286 24.8559 9.49196 24.9574C9.37486 25.4258 9.27337 25.8864 9.1797 26.3626C8.36 30.6953 9.00014 34.1302 11.0455 35.309C13.1533 36.5268 16.6975 35.2778 20.148 32.2566C20.4212 32.0146 20.6945 31.7648 20.9677 31.4994C21.3112 31.8351 21.6703 32.1551 22.0294 32.4674C25.3706 35.3402 28.6728 36.5034 30.7104 35.3246C32.8182 34.1068 33.5051 30.4143 32.6152 25.9176C32.5449 25.5741 32.4669 25.2228 32.381 24.8637C32.6308 24.7935 32.8728 24.7154 33.1148 24.6373C37.6192 23.1463 40.8824 20.734 40.8824 18.2593C40.8824 15.8939 37.8066 13.5988 33.5598 12.1389ZM22.9974 5.51111C25.9015 2.98176 28.6104 1.99032 29.8438 2.70072C31.1632 3.45796 31.6706 6.51816 30.8431 10.5386C30.7884 10.804 30.7338 11.0616 30.6635 11.3192C28.9305 10.9289 27.174 10.6479 25.4097 10.4917C24.3948 9.0397 23.2863 7.65012 22.0841 6.34642C22.3885 6.05757 22.6852 5.78434 22.9974 5.51111ZM13.9652 22.311C14.3633 22.9901 14.7692 23.6693 15.1986 24.3329C13.9808 24.2002 12.7707 24.005 11.5763 23.7474C11.9198 22.6232 12.3492 21.46 12.8488 20.2734C13.2079 20.9604 13.5748 21.6396 13.9652 22.311ZM11.5997 12.9196C12.7239 12.6698 13.9183 12.4668 15.1596 12.3107C14.7458 12.9586 14.3399 13.6222 13.9574 14.2936C13.5748 14.9571 13.2001 15.6363 12.8488 16.3233C12.357 15.1601 11.9432 14.0203 11.5997 12.9196ZM13.7388 18.2984C14.254 17.2211 14.8161 16.1672 15.4094 15.1289C16.0027 14.0906 16.6428 13.0835 17.3142 12.0921C18.4852 12.0062 19.6796 11.9594 20.8974 11.9594C22.1153 11.9594 23.3175 12.0062 24.4807 12.0921C25.1442 13.0757 25.7766 14.0828 26.3777 15.1133C26.9788 16.1437 27.5409 17.1976 28.0717 18.2671C27.5487 19.3445 26.9866 20.4062 26.3855 21.4522C25.7922 22.4905 25.1599 23.4976 24.4963 24.4968C23.3331 24.5827 22.1231 24.6217 20.8974 24.6217C19.6718 24.6217 18.4852 24.5827 17.3376 24.5124C16.6584 23.521 16.0183 22.5061 15.4172 21.4679C14.8161 20.4296 14.2618 19.3757 13.7388 18.2984ZM27.8375 22.2954C28.2357 21.6084 28.6104 20.9136 28.9773 20.211C29.4769 21.343 29.9141 22.4905 30.2966 23.6693C29.0866 23.9426 27.861 24.1533 26.6275 24.2939C27.0491 23.6381 27.4472 22.9667 27.8375 22.2954ZM28.9617 16.3233C28.5948 15.6363 28.2201 14.9493 27.8297 14.278C27.4472 13.6144 27.0491 12.9586 26.6353 12.3107C27.8922 12.4668 29.0944 12.6776 30.2186 12.9352C29.8595 14.0906 29.4379 15.2147 28.9617 16.3233ZM20.9131 7.54083C21.7328 8.43079 22.5056 9.36758 23.2238 10.3356C21.6781 10.2653 20.1246 10.2653 18.5789 10.3356C19.3439 9.32855 20.1324 8.39175 20.9131 7.54083ZM11.8574 2.75537C13.1689 1.99032 16.0808 3.08325 19.1488 5.79995C19.3439 5.9717 19.5391 6.15906 19.7421 6.34642C18.532 7.65012 17.4157 9.0397 16.393 10.4917C14.6287 10.6479 12.88 10.9211 11.147 11.3036C11.0455 10.9055 10.9596 10.4995 10.8737 10.0936C10.1399 6.31519 10.6239 3.46577 11.8574 2.75537ZM9.94474 23.3336C9.61687 23.24 9.29679 23.1385 8.97672 23.0292C7.31391 22.5061 5.42471 21.6786 4.05855 20.5935C3.27008 20.047 2.73923 19.2039 2.5909 18.2593C2.5909 16.8307 5.0578 15.004 8.61762 13.7627C9.0626 13.6066 9.51538 13.4661 9.96816 13.3333C10.499 15.0274 11.1392 16.6902 11.8808 18.2984C11.1314 19.93 10.4834 21.6162 9.94474 23.3336ZM19.0473 30.9841C17.7592 32.1629 16.2681 33.0997 14.6443 33.7399C13.7778 34.1536 12.7786 34.1927 11.8886 33.8414C10.6473 33.1232 10.1321 30.3674 10.8347 26.6593C10.9206 26.2221 11.0143 25.7849 11.1235 25.3556C12.8722 25.7303 14.6365 25.9879 16.4242 26.1206C17.4547 27.5804 18.5867 28.9778 19.7967 30.2893C19.5469 30.5314 19.2971 30.7656 19.0473 30.9841ZM20.9599 29.0871C20.1636 28.2284 19.3673 27.276 18.5945 26.2533C19.3439 26.2845 20.1168 26.3002 20.8974 26.3002C21.7015 26.3002 22.49 26.2845 23.2707 26.2455C22.5524 27.237 21.7796 28.1816 20.9599 29.0871ZM31.1632 31.4291C31.0929 32.3815 30.6245 33.2715 29.8751 33.8726C28.6338 34.5908 25.9874 33.654 23.1301 31.2027C22.8023 30.9217 22.4744 30.6172 22.1387 30.305C23.3331 28.9856 24.4338 27.5883 25.4331 26.1206C27.2208 25.9723 29.0007 25.699 30.7572 25.3009C30.8353 25.621 30.9055 25.9411 30.968 26.2533C31.3505 27.9396 31.413 29.696 31.1632 31.4291ZM32.584 23.037C32.3654 23.1072 32.1468 23.1775 31.9204 23.24C31.3739 21.5381 30.7026 19.8753 29.9297 18.2593C30.6791 16.6668 31.3115 15.0274 31.8423 13.349C32.2483 13.4661 32.6386 13.591 33.0133 13.7159C36.6512 14.9649 39.204 16.8229 39.204 18.2437C39.204 19.7738 36.4795 21.7489 32.584 23.037ZM20.8974 21.866C22.8725 21.866 24.4729 20.2656 24.4729 18.2906C24.4729 16.3155 22.8725 14.7151 20.8974 14.7151C18.9224 14.7151 17.322 16.3155 17.322 18.2906C17.322 20.2656 18.9224 21.866 20.8974 21.866Z" fill="white"/>
</svg>
