<svg width="30" height="40" viewBox="0 0 30 40" fill="none" xmlns="http://www.w3.org/2000/svg">
<path d="M13.4067 20.0251L0.660732 6.37732C-0.220242 5.43402 -0.220242 3.90868 0.660732 2.97541L2.77882 0.707476C3.6598 -0.235825 5.08435 -0.235825 5.95595 0.707476L14.9906 10.3813L24.0253 0.707476C24.9063 -0.235825 26.3308 -0.235825 27.2024 0.707476L29.3393 2.96538C30.2202 3.90868 30.2202 5.43402 29.3393 6.36729L16.5933 20.0151C15.7123 20.9684 14.2877 20.9684 13.4067 20.0251ZM16.5933 39.2925L29.3393 25.6448C30.2202 24.7015 30.2202 23.1761 29.3393 22.2429L27.2212 19.9749C26.3402 19.0316 24.9157 19.0316 24.044 19.9749L15.0094 29.6488L5.9747 19.9749C5.09372 19.0316 3.66917 19.0316 2.79756 19.9749L0.679478 22.2429C-0.201497 23.1862 -0.201497 24.7115 0.679478 25.6448L13.4255 39.2925C14.2877 40.2358 15.7123 40.2358 16.5933 39.2925Z" fill="white"/>
</svg>
